<svg width="115" height="56" viewBox="0 0 115 56" fill="none" xmlns="http://www.w3.org/2000/svg">
<path d="M100.228 56L87.3072 43.4402L85.8653 42.0593L84.4457 43.4402L71.6473 55.8615H63.0889L53.8803 46.909L61.2457 39.7528L67.3737 45.7066L107.493 6.70466V21.0207L94.6949 33.4821L93.253 34.8812L94.6949 36.2622L115 56H100.228Z" fill="white"/>
<path d="M82.2572 24.2122L74.8732 31.3903L57.3664 14.3525L55.9245 15.7334L47.5669 23.877L46.1659 25.258L57.567 36.3384L50.2016 43.4946L38.7819 32.3923L37.34 33.7915L29.8556 41.0861L14.7643 55.7556H0L53.6762 3.60724L57.3664 0L61.0602 3.60724L82.2572 24.2122Z" fill="white"/>
</svg>
